<svg width="648" height="338" viewBox="0 0 648 338" fill="none" xmlns="http://www.w3.org/2000/svg">
<g id="arc">
<rect width="648" height="338" fill="white"/>
<g id="p1">
<rect id="Rectangle 1" x="20" y="22" width="608" height="295" fill="#EEEEEE"/>
<path id="PRESENTATION" d="M27.1152 35.6602V39H25.9902V30.4688H29.1367C30.0703 30.4688 30.8008 30.707 31.3281 31.1836C31.8594 31.6602 32.125 32.291 32.125 33.0762C32.125 33.9043 31.8652 34.543 31.3457 34.9922C30.8301 35.4375 30.0898 35.6602 29.125 35.6602H27.1152ZM27.1152 34.7402H29.1367C29.7383 34.7402 30.1992 34.5996 30.5195 34.3184C30.8398 34.0332 31 33.623 31 33.0879C31 32.5801 30.8398 32.1738 30.5195 31.8691C30.1992 31.5645 29.7598 31.4062 29.2012 31.3945H27.1152V34.7402ZM36.6895 35.5488H34.6855V39H33.5547V30.4688H36.3789C37.3398 30.4688 38.0781 30.6875 38.5938 31.125C39.1133 31.5625 39.373 32.1992 39.373 33.0352C39.373 33.5664 39.2285 34.0293 38.9395 34.4238C38.6543 34.8184 38.2559 35.1133 37.7441 35.3086L39.748 38.9297V39H38.541L36.6895 35.5488ZM34.6855 34.6289H36.4141C36.9727 34.6289 37.416 34.4844 37.7441 34.1953C38.0762 33.9062 38.2422 33.5195 38.2422 33.0352C38.2422 32.5078 38.084 32.1035 37.7676 31.8223C37.4551 31.541 37.002 31.3984 36.4082 31.3945H34.6855V34.6289ZM45.7773 35.0566H42.0801V38.0801H46.375V39H40.9551V30.4688H46.3164V31.3945H42.0801V34.1367H45.7773V35.0566ZM50.2891 35.1973C49.3242 34.9199 48.6211 34.5801 48.1797 34.1777C47.7422 33.7715 47.5234 33.2715 47.5234 32.6777C47.5234 32.0059 47.791 31.4512 48.3262 31.0137C48.8652 30.5723 49.5645 30.3516 50.4238 30.3516C51.0098 30.3516 51.5312 30.4648 51.9883 30.6914C52.4492 30.918 52.8047 31.2305 53.0547 31.6289C53.3086 32.0273 53.4355 32.4629 53.4355 32.9355H52.3047C52.3047 32.4199 52.1406 32.0156 51.8125 31.7227C51.4844 31.4258 51.0215 31.2773 50.4238 31.2773C49.8691 31.2773 49.4355 31.4004 49.123 31.6465C48.8145 31.8887 48.6602 32.2266 48.6602 32.6602C48.6602 33.0078 48.8066 33.3027 49.0996 33.5449C49.3965 33.7832 49.8984 34.002 50.6055 34.2012C51.3164 34.4004 51.8711 34.6211 52.2695 34.8633C52.6719 35.1016 52.9688 35.3809 53.1602 35.7012C53.3555 36.0215 53.4531 36.3984 53.4531 36.832C53.4531 37.5234 53.1836 38.0781 52.6445 38.4961C52.1055 38.9102 51.3848 39.1172 50.4824 39.1172C49.8965 39.1172 49.3496 39.0059 48.8418 38.7832C48.334 38.5566 47.9414 38.248 47.6641 37.8574C47.3906 37.4668 47.2539 37.0234 47.2539 36.5273H48.3848C48.3848 37.043 48.5742 37.4512 48.9531 37.752C49.3359 38.0488 49.8457 38.1973 50.4824 38.1973C51.0762 38.1973 51.5312 38.0762 51.8477 37.834C52.1641 37.5918 52.3223 37.2617 52.3223 36.8438C52.3223 36.4258 52.1758 36.1035 51.8828 35.877C51.5898 35.6465 51.0586 35.4199 50.2891 35.1973ZM59.7227 35.0566H56.0254V38.0801H60.3203V39H54.9004V30.4688H60.2617V31.3945H56.0254V34.1367H59.7227V35.0566ZM68.2773 39H67.1465L62.8516 32.4258V39H61.7207V30.4688H62.8516L67.1582 37.0723V30.4688H68.2773V39ZM75.9941 31.3945H73.252V39H72.1328V31.3945H69.3965V30.4688H75.9941V31.3945ZM81.502 36.7734H77.9277L77.125 39H75.9648L79.2227 30.4688H80.207L83.4707 39H82.3164L81.502 36.7734ZM78.2676 35.8477H81.168L79.7148 31.8574L78.2676 35.8477ZM89.752 31.3945H87.0098V39H85.8906V31.3945H83.1543V30.4688H89.752V31.3945ZM92.2246 39H91.0996V30.4688H92.2246V39ZM100.85 35.0098C100.85 35.8457 100.709 36.5762 100.428 37.2012C100.146 37.8223 99.748 38.2969 99.2324 38.625C98.7168 38.9531 98.1152 39.1172 97.4277 39.1172C96.7559 39.1172 96.1602 38.9531 95.6406 38.625C95.1211 38.293 94.7168 37.8223 94.4277 37.2129C94.1426 36.5996 93.9961 35.8906 93.9883 35.0859V34.4707C93.9883 33.6504 94.1309 32.9258 94.416 32.2969C94.7012 31.668 95.1035 31.1875 95.623 30.8555C96.1465 30.5195 96.7441 30.3516 97.416 30.3516C98.0996 30.3516 98.7012 30.5176 99.2207 30.8496C99.7441 31.1777 100.146 31.6562 100.428 32.2852C100.709 32.9102 100.85 33.6387 100.85 34.4707V35.0098ZM99.7305 34.459C99.7305 33.4473 99.5273 32.6719 99.1211 32.1328C98.7148 31.5898 98.1465 31.3184 97.416 31.3184C96.7051 31.3184 96.1445 31.5898 95.7344 32.1328C95.3281 32.6719 95.1191 33.4219 95.1074 34.3828V35.0098C95.1074 35.9902 95.3125 36.7617 95.7227 37.3242C96.1367 37.8828 96.7051 38.1621 97.4277 38.1621C98.1543 38.1621 98.7168 37.8984 99.1152 37.3711C99.5137 36.8398 99.7188 36.0801 99.7305 35.0918V34.459ZM109.094 39H107.963L103.668 32.4258V39H102.537V30.4688H103.668L107.975 37.0723V30.4688H109.094V39Z" fill="black"/>
</g>
<g id="s2">
<rect id="Rectangle 1_2" x="28" y="59" width="545" height="231" fill="#DDDDDD"/>
<path id="SCENE" d="M37.7803 72.1973C36.8155 71.9199 36.1123 71.5801 35.6709 71.1777C35.2334 70.7715 35.0147 70.2715 35.0147 69.6777C35.0147 69.0059 35.2823 68.4512 35.8174 68.0137C36.3565 67.5723 37.0557 67.3516 37.9151 67.3516C38.501 67.3516 39.0225 67.4648 39.4795 67.6914C39.9405 67.918 40.2959 68.2305 40.5459 68.6289C40.7998 69.0273 40.9268 69.4629 40.9268 69.9355H39.7959C39.7959 69.4199 39.6319 69.0156 39.3037 68.7227C38.9756 68.4258 38.5127 68.2773 37.9151 68.2773C37.3604 68.2773 36.9268 68.4004 36.6143 68.6465C36.3057 68.8887 36.1514 69.2266 36.1514 69.6602C36.1514 70.0078 36.2979 70.3027 36.5909 70.5449C36.8877 70.7832 37.3897 71.002 38.0967 71.2012C38.8076 71.4004 39.3623 71.6211 39.7608 71.8633C40.1631 72.1016 40.46 72.3809 40.6514 72.7012C40.8467 73.0215 40.9444 73.3984 40.9444 73.832C40.9444 74.5234 40.6748 75.0781 40.1358 75.4961C39.5967 75.9102 38.876 76.1172 37.9737 76.1172C37.3877 76.1172 36.8409 76.0059 36.333 75.7832C35.8252 75.5566 35.4326 75.248 35.1553 74.8574C34.8819 74.4668 34.7451 74.0234 34.7451 73.5273H35.876C35.876 74.043 36.0655 74.4512 36.4444 74.752C36.8272 75.0488 37.3369 75.1973 37.9737 75.1973C38.5674 75.1973 39.0225 75.0762 39.3389 74.834C39.6553 74.5918 39.8135 74.2617 39.8135 73.8438C39.8135 73.4258 39.667 73.1035 39.3741 72.877C39.0811 72.6465 38.5498 72.4199 37.7803 72.1973ZM48.667 73.293C48.5616 74.1953 48.2276 74.8926 47.6651 75.3848C47.1065 75.873 46.3623 76.1172 45.4326 76.1172C44.4248 76.1172 43.6162 75.7559 43.0069 75.0332C42.4014 74.3105 42.0987 73.3438 42.0987 72.1328V71.3125C42.0987 70.5195 42.2393 69.8223 42.5205 69.2207C42.8057 68.6191 43.208 68.1582 43.7276 67.8379C44.2471 67.5137 44.8487 67.3516 45.5323 67.3516C46.4385 67.3516 47.1651 67.6055 47.7119 68.1133C48.2588 68.6172 48.5772 69.3164 48.667 70.2109H47.5362C47.4385 69.5312 47.2256 69.0391 46.8975 68.7344C46.5733 68.4297 46.1182 68.2773 45.5323 68.2773C44.8135 68.2773 44.2491 68.543 43.8389 69.0742C43.4326 69.6055 43.2295 70.3613 43.2295 71.3418V72.168C43.2295 73.0938 43.4229 73.8301 43.8096 74.377C44.1963 74.9238 44.7373 75.1973 45.4326 75.1973C46.0576 75.1973 46.5362 75.0566 46.8682 74.7754C47.2041 74.4902 47.4268 73.9961 47.5362 73.293H48.667ZM55.0303 72.0566H51.333V75.0801H55.628V76H50.208V67.4688H55.5694V68.3945H51.333V71.1367H55.0303V72.0566ZM63.585 76H62.4541L58.1592 69.4258V76H57.0284V67.4688H58.1592L62.4659 74.0723V67.4688H63.585V76ZM70.4053 72.0566H66.708V75.0801H71.003V76H65.583V67.4688H70.9444V68.3945H66.708V71.1367H70.4053V72.0566Z" fill="black"/>
</g>
<g id="b3">
<rect id="Rectangle 1_3" x="37" y="101" width="228" height="167" fill="#CCCCCC"/>
<path id="BLOCK" d="M43.9902 118V109.469H46.7793C47.7051 109.469 48.4004 109.66 48.8652 110.043C49.334 110.426 49.5684 110.992 49.5684 111.742C49.5684 112.141 49.4551 112.494 49.2285 112.803C49.002 113.107 48.6934 113.344 48.3027 113.512C48.7637 113.641 49.127 113.887 49.3926 114.25C49.6621 114.609 49.7969 115.039 49.7969 115.539C49.7969 116.305 49.5488 116.906 49.0527 117.344C48.5566 117.781 47.8555 118 46.9492 118H43.9902ZM45.1152 114.01V117.08H46.9727C47.4961 117.08 47.9082 116.945 48.209 116.676C48.5137 116.402 48.666 116.027 48.666 115.551C48.666 114.523 48.1074 114.01 46.9902 114.01H45.1152ZM45.1152 113.107H46.8145C47.3066 113.107 47.6992 112.984 47.9922 112.738C48.2891 112.492 48.4375 112.158 48.4375 111.736C48.4375 111.268 48.3008 110.928 48.0273 110.717C47.7539 110.502 47.3379 110.395 46.7793 110.395H45.1152V113.107ZM52.5977 117.08H56.6406V118H51.4668V109.469H52.5977V117.08ZM64.0996 114.01C64.0996 114.846 63.959 115.576 63.6777 116.201C63.3965 116.822 62.998 117.297 62.4824 117.625C61.9668 117.953 61.3652 118.117 60.6777 118.117C60.0059 118.117 59.4102 117.953 58.8906 117.625C58.3711 117.293 57.9668 116.822 57.6777 116.213C57.3926 115.6 57.2461 114.891 57.2383 114.086V113.471C57.2383 112.65 57.3809 111.926 57.666 111.297C57.9512 110.668 58.3535 110.188 58.873 109.855C59.3965 109.52 59.9941 109.352 60.666 109.352C61.3496 109.352 61.9512 109.518 62.4707 109.85C62.9941 110.178 63.3965 110.656 63.6777 111.285C63.959 111.91 64.0996 112.639 64.0996 113.471V114.01ZM62.9805 113.459C62.9805 112.447 62.7773 111.672 62.3711 111.133C61.9648 110.59 61.3965 110.318 60.666 110.318C59.9551 110.318 59.3945 110.59 58.9844 111.133C58.5781 111.672 58.3691 112.422 58.3574 113.383V114.01C58.3574 114.99 58.5625 115.762 58.9727 116.324C59.3867 116.883 59.9551 117.162 60.6777 117.162C61.4043 117.162 61.9668 116.898 62.3652 116.371C62.7637 115.84 62.9688 115.08 62.9805 114.092V113.459ZM72.0625 115.293C71.957 116.195 71.623 116.893 71.0605 117.385C70.502 117.873 69.7578 118.117 68.8281 118.117C67.8203 118.117 67.0117 117.756 66.4023 117.033C65.7969 116.311 65.4941 115.344 65.4941 114.133V113.312C65.4941 112.52 65.6348 111.822 65.916 111.221C66.2012 110.619 66.6035 110.158 67.123 109.838C67.6426 109.514 68.2441 109.352 68.9277 109.352C69.834 109.352 70.5605 109.605 71.1074 110.113C71.6543 110.617 71.9727 111.316 72.0625 112.211H70.9316C70.834 111.531 70.6211 111.039 70.293 110.734C69.9688 110.43 69.5137 110.277 68.9277 110.277C68.209 110.277 67.6445 110.543 67.2344 111.074C66.8281 111.605 66.625 112.361 66.625 113.342V114.168C66.625 115.094 66.8184 115.83 67.2051 116.377C67.5918 116.924 68.1328 117.197 68.8281 117.197C69.4531 117.197 69.9316 117.057 70.2637 116.775C70.5996 116.49 70.8223 115.996 70.9316 115.293H72.0625ZM75.7715 114.033L74.7285 115.117V118H73.6035V109.469H74.7285V113.688L78.5195 109.469H79.8789L76.5215 113.236L80.1426 118H78.7949L75.7715 114.033Z" fill="black"/>
</g>
<g id="b4">
<rect id="Rectangle 3" x="286" y="101" width="228" height="97" fill="#CCCCCC"/>
<path id="BLOCK_2" d="M292.99 118V109.469H295.779C296.705 109.469 297.4 109.66 297.865 110.043C298.334 110.426 298.568 110.992 298.568 111.742C298.568 112.141 298.455 112.494 298.229 112.803C298.002 113.107 297.693 113.344 297.303 113.512C297.764 113.641 298.127 113.887 298.393 114.25C298.662 114.609 298.797 115.039 298.797 115.539C298.797 116.305 298.549 116.906 298.053 117.344C297.557 117.781 296.855 118 295.949 118H292.99ZM294.115 114.01V117.08H295.973C296.496 117.08 296.908 116.945 297.209 116.676C297.514 116.402 297.666 116.027 297.666 115.551C297.666 114.523 297.107 114.01 295.99 114.01H294.115ZM294.115 113.107H295.814C296.307 113.107 296.699 112.984 296.992 112.738C297.289 112.492 297.438 112.158 297.438 111.736C297.438 111.268 297.301 110.928 297.027 110.717C296.754 110.502 296.338 110.395 295.779 110.395H294.115V113.107ZM301.598 117.08H305.641V118H300.467V109.469H301.598V117.08ZM313.1 114.01C313.1 114.846 312.959 115.576 312.678 116.201C312.396 116.822 311.998 117.297 311.482 117.625C310.967 117.953 310.365 118.117 309.678 118.117C309.006 118.117 308.41 117.953 307.891 117.625C307.371 117.293 306.967 116.822 306.678 116.213C306.393 115.6 306.246 114.891 306.238 114.086V113.471C306.238 112.65 306.381 111.926 306.666 111.297C306.951 110.668 307.354 110.188 307.873 109.855C308.396 109.52 308.994 109.352 309.666 109.352C310.35 109.352 310.951 109.518 311.471 109.85C311.994 110.178 312.396 110.656 312.678 111.285C312.959 111.91 313.1 112.639 313.1 113.471V114.01ZM311.98 113.459C311.98 112.447 311.777 111.672 311.371 111.133C310.965 110.59 310.396 110.318 309.666 110.318C308.955 110.318 308.395 110.59 307.984 111.133C307.578 111.672 307.369 112.422 307.357 113.383V114.01C307.357 114.99 307.562 115.762 307.973 116.324C308.387 116.883 308.955 117.162 309.678 117.162C310.404 117.162 310.967 116.898 311.365 116.371C311.764 115.84 311.969 115.08 311.98 114.092V113.459ZM321.062 115.293C320.957 116.195 320.623 116.893 320.061 117.385C319.502 117.873 318.758 118.117 317.828 118.117C316.82 118.117 316.012 117.756 315.402 117.033C314.797 116.311 314.494 115.344 314.494 114.133V113.312C314.494 112.52 314.635 111.822 314.916 111.221C315.201 110.619 315.604 110.158 316.123 109.838C316.643 109.514 317.244 109.352 317.928 109.352C318.834 109.352 319.561 109.605 320.107 110.113C320.654 110.617 320.973 111.316 321.062 112.211H319.932C319.834 111.531 319.621 111.039 319.293 110.734C318.969 110.43 318.514 110.277 317.928 110.277C317.209 110.277 316.645 110.543 316.234 111.074C315.828 111.605 315.625 112.361 315.625 113.342V114.168C315.625 115.094 315.818 115.83 316.205 116.377C316.592 116.924 317.133 117.197 317.828 117.197C318.453 117.197 318.932 117.057 319.264 116.775C319.6 116.49 319.822 115.996 319.932 115.293H321.062ZM324.771 114.033L323.729 115.117V118H322.604V109.469H323.729V113.688L327.52 109.469H328.879L325.521 113.236L329.143 118H327.795L324.771 114.033Z" fill="black"/>
</g>
<g id="b5">
<rect id="Rectangle 3_2" x="286" y="218" width="228" height="50" fill="#CCCCCC"/>
<path id="BLOCK_3" d="M292.99 235V226.469H295.779C296.705 226.469 297.4 226.66 297.865 227.043C298.334 227.426 298.568 227.992 298.568 228.742C298.568 229.141 298.455 229.494 298.229 229.803C298.002 230.107 297.693 230.344 297.303 230.512C297.764 230.641 298.127 230.887 298.393 231.25C298.662 231.609 298.797 232.039 298.797 232.539C298.797 233.305 298.549 233.906 298.053 234.344C297.557 234.781 296.855 235 295.949 235H292.99ZM294.115 231.01V234.08H295.973C296.496 234.08 296.908 233.945 297.209 233.676C297.514 233.402 297.666 233.027 297.666 232.551C297.666 231.523 297.107 231.01 295.99 231.01H294.115ZM294.115 230.107H295.814C296.307 230.107 296.699 229.984 296.992 229.738C297.289 229.492 297.438 229.158 297.438 228.736C297.438 228.268 297.301 227.928 297.027 227.717C296.754 227.502 296.338 227.395 295.779 227.395H294.115V230.107ZM301.598 234.08H305.641V235H300.467V226.469H301.598V234.08ZM313.1 231.01C313.1 231.846 312.959 232.576 312.678 233.201C312.396 233.822 311.998 234.297 311.482 234.625C310.967 234.953 310.365 235.117 309.678 235.117C309.006 235.117 308.41 234.953 307.891 234.625C307.371 234.293 306.967 233.822 306.678 233.213C306.393 232.6 306.246 231.891 306.238 231.086V230.471C306.238 229.65 306.381 228.926 306.666 228.297C306.951 227.668 307.354 227.188 307.873 226.855C308.396 226.52 308.994 226.352 309.666 226.352C310.35 226.352 310.951 226.518 311.471 226.85C311.994 227.178 312.396 227.656 312.678 228.285C312.959 228.91 313.1 229.639 313.1 230.471V231.01ZM311.98 230.459C311.98 229.447 311.777 228.672 311.371 228.133C310.965 227.59 310.396 227.318 309.666 227.318C308.955 227.318 308.395 227.59 307.984 228.133C307.578 228.672 307.369 229.422 307.357 230.383V231.01C307.357 231.99 307.562 232.762 307.973 233.324C308.387 233.883 308.955 234.162 309.678 234.162C310.404 234.162 310.967 233.898 311.365 233.371C311.764 232.84 311.969 232.08 311.98 231.092V230.459ZM321.062 232.293C320.957 233.195 320.623 233.893 320.061 234.385C319.502 234.873 318.758 235.117 317.828 235.117C316.82 235.117 316.012 234.756 315.402 234.033C314.797 233.311 314.494 232.344 314.494 231.133V230.312C314.494 229.52 314.635 228.822 314.916 228.221C315.201 227.619 315.604 227.158 316.123 226.838C316.643 226.514 317.244 226.352 317.928 226.352C318.834 226.352 319.561 226.605 320.107 227.113C320.654 227.617 320.973 228.316 321.062 229.211H319.932C319.834 228.531 319.621 228.039 319.293 227.734C318.969 227.43 318.514 227.277 317.928 227.277C317.209 227.277 316.645 227.543 316.234 228.074C315.828 228.605 315.625 229.361 315.625 230.342V231.168C315.625 232.094 315.818 232.83 316.205 233.377C316.592 233.924 317.133 234.197 317.828 234.197C318.453 234.197 318.932 234.057 319.264 233.775C319.6 233.49 319.822 232.996 319.932 232.293H321.062ZM324.771 231.033L323.729 232.117V235H322.604V226.469H323.729V230.688L327.52 226.469H328.879L325.521 230.236L329.143 235H327.795L324.771 231.033Z" fill="black"/>
</g>
<g id="t6">
<rect id="Rectangle 4" x="43" y="122" width="217" height="141" fill="#287EFF"/>
<rect id="Rectangle 5" x="291" y="122" width="217" height="70" fill="#287EFF"/>
<rect id="Rectangle 6" x="291" y="238" width="217" height="25" fill="#287EFF"/>
<path id="TEXT" d="M139.775 188.339H135.855V199H133.219V188.339H129.352V186.203H139.775V188.339ZM148.986 193.454H143.924V196.882H149.865V199H141.287V186.203H149.848V188.339H143.924V191.389H148.986V193.454ZM155.991 190.615L158.391 186.203H161.423L157.696 192.549L161.52 199H158.452L155.991 194.518L153.53 199H150.463L154.286 192.549L150.56 186.203H153.592L155.991 190.615ZM172.488 188.339H168.568V199H165.932V188.339H162.064V186.203H172.488V188.339Z" fill="white"/>
<path id="IMAGE" d="M375.946 163H373.31V150.203H375.946V163ZM381.844 150.203L385.131 159.484L388.4 150.203H391.863V163H389.218V159.502L389.481 153.464L386.027 163H384.217L380.771 153.473L381.035 159.502V163H378.398V150.203H381.844ZM401.549 160.363H396.926L396.047 163H393.243L398.007 150.203H400.45L405.24 163H402.437L401.549 160.363ZM397.638 158.228H400.837L399.229 153.438L397.638 158.228ZM416.367 161.383C415.893 161.951 415.222 162.394 414.354 162.71C413.487 163.021 412.526 163.176 411.472 163.176C410.364 163.176 409.392 162.936 408.554 162.455C407.722 161.969 407.077 161.266 406.62 160.346C406.169 159.426 405.938 158.345 405.926 157.103V156.232C405.926 154.955 406.14 153.851 406.567 152.919C407.001 151.981 407.622 151.267 408.431 150.774C409.245 150.276 410.197 150.027 411.287 150.027C412.805 150.027 413.991 150.391 414.847 151.117C415.702 151.838 416.209 152.89 416.367 154.272H413.801C413.684 153.54 413.423 153.004 413.019 152.664C412.62 152.324 412.069 152.154 411.366 152.154C410.47 152.154 409.787 152.491 409.318 153.165C408.85 153.839 408.612 154.841 408.606 156.171V156.988C408.606 158.33 408.861 159.344 409.371 160.029C409.881 160.715 410.628 161.058 411.612 161.058C412.603 161.058 413.309 160.847 413.73 160.425V158.219H411.331V156.276H416.367V161.383ZM426.211 157.454H421.148V160.882H427.09V163H418.512V150.203H427.072V152.339H421.148V155.389H426.211V157.454Z" fill="white"/>
<path id="TEXT_2" d="M388.775 246.339H384.855V257H382.219V246.339H378.352V244.203H388.775V246.339ZM397.986 251.454H392.924V254.882H398.865V257H390.287V244.203H398.848V246.339H392.924V249.389H397.986V251.454ZM404.991 248.615L407.391 244.203H410.423L406.696 250.549L410.52 257H407.452L404.991 252.518L402.53 257H399.463L403.286 250.549L399.56 244.203H402.592L404.991 248.615ZM421.488 246.339H417.568V257H414.932V246.339H411.064V244.203H421.488V246.339Z" fill="white"/>
</g>
<g id="t7">
<rect id="Rectangle 7" x="415" y="65" width="152" height="28" fill="#9E52FF"/>
<path id="MODULES" d="M454.588 72.2031L457.875 81.4844L461.145 72.2031H464.607V85H461.962V81.502L462.226 75.4639L458.771 85H456.961L453.516 75.4727L453.779 81.502V85H451.143V72.2031H454.588ZM477.422 78.8916C477.422 80.1514 477.199 81.2559 476.754 82.2051C476.309 83.1543 475.67 83.8867 474.838 84.4023C474.012 84.918 473.062 85.1758 471.99 85.1758C470.93 85.1758 469.983 84.9209 469.151 84.4111C468.319 83.9014 467.675 83.1748 467.218 82.2314C466.761 81.2822 466.529 80.1924 466.523 78.9619V78.3291C466.523 77.0693 466.749 75.9619 467.2 75.0068C467.657 74.0459 468.299 73.3105 469.125 72.8008C469.957 72.2852 470.906 72.0273 471.973 72.0273C473.039 72.0273 473.985 72.2852 474.812 72.8008C475.644 73.3105 476.285 74.0459 476.736 75.0068C477.193 75.9619 477.422 77.0664 477.422 78.3203V78.8916ZM474.75 78.3115C474.75 76.9697 474.51 75.9502 474.029 75.2529C473.549 74.5557 472.863 74.207 471.973 74.207C471.088 74.207 470.405 74.5527 469.925 75.2441C469.444 75.9297 469.201 76.9375 469.195 78.2676V78.8916C469.195 80.1982 469.436 81.2119 469.916 81.9326C470.396 82.6533 471.088 83.0137 471.99 83.0137C472.875 83.0137 473.555 82.668 474.029 81.9766C474.504 81.2793 474.744 80.2656 474.75 78.9355V78.3115ZM479.338 85V72.2031H483.275C484.4 72.2031 485.405 72.458 486.29 72.9678C487.181 73.4717 487.875 74.1924 488.373 75.1299C488.871 76.0615 489.12 77.1221 489.12 78.3115V78.9004C489.12 80.0898 488.874 81.1475 488.382 82.0732C487.896 82.999 487.207 83.7168 486.316 84.2266C485.426 84.7363 484.421 84.9941 483.302 85H479.338ZM481.975 74.3389V82.8818H483.249C484.28 82.8818 485.068 82.5449 485.613 81.8711C486.158 81.1973 486.437 80.2334 486.448 78.9795V78.3027C486.448 77.002 486.179 76.0176 485.64 75.3496C485.101 74.6758 484.312 74.3389 483.275 74.3389H481.975ZM500.73 72.2031V80.6318C500.73 82.0322 500.291 83.1396 499.412 83.9541C498.539 84.7686 497.344 85.1758 495.826 85.1758C494.332 85.1758 493.146 84.7803 492.267 83.9893C491.388 83.1982 490.939 82.1113 490.922 80.7285V72.2031H493.559V80.6494C493.559 81.4873 493.758 82.0996 494.156 82.4863C494.561 82.8672 495.117 83.0576 495.826 83.0576C497.309 83.0576 498.062 82.2783 498.085 80.7197V72.2031H500.73ZM505.529 82.8818H511.128V85H502.893V72.2031H505.529V82.8818ZM520.348 79.4541H515.285V82.8818H521.227V85H512.648V72.2031H521.209V74.3389H515.285V77.3887H520.348V79.4541ZM529.409 81.6426C529.409 81.1445 529.233 80.7637 528.882 80.5C528.53 80.2305 527.897 79.9492 526.983 79.6562C526.069 79.3574 525.346 79.0645 524.812 78.7773C523.359 77.9922 522.633 76.9346 522.633 75.6045C522.633 74.9131 522.826 74.2979 523.213 73.7588C523.605 73.2139 524.165 72.7891 524.892 72.4844C525.624 72.1797 526.444 72.0273 527.353 72.0273C528.267 72.0273 529.081 72.1943 529.796 72.5283C530.511 72.8564 531.064 73.3223 531.457 73.9258C531.855 74.5293 532.055 75.2148 532.055 75.9824H529.418C529.418 75.3965 529.233 74.9424 528.864 74.6201C528.495 74.292 527.977 74.1279 527.309 74.1279C526.664 74.1279 526.163 74.2656 525.806 74.541C525.448 74.8105 525.27 75.168 525.27 75.6133C525.27 76.0293 525.478 76.3779 525.894 76.6592C526.315 76.9404 526.934 77.2041 527.748 77.4502C529.248 77.9014 530.341 78.4609 531.026 79.1289C531.712 79.7969 532.055 80.6289 532.055 81.625C532.055 82.7324 531.636 83.6025 530.798 84.2354C529.96 84.8623 528.832 85.1758 527.414 85.1758C526.43 85.1758 525.533 84.9971 524.725 84.6396C523.916 84.2764 523.298 83.7812 522.87 83.1543C522.448 82.5273 522.237 81.8008 522.237 80.9746H524.883C524.883 82.3867 525.727 83.0928 527.414 83.0928C528.041 83.0928 528.53 82.9668 528.882 82.7148C529.233 82.457 529.409 82.0996 529.409 81.6426Z" fill="white"/>
</g>
<g id="t8">
<rect id="Rectangle 8" x="472" y="26" width="152" height="28" fill="#FF3FE0"/>
<path id="CONTROLLERS" d="M497.188 41.7373C497.089 43.1143 496.579 44.1982 495.659 44.9893C494.745 45.7803 493.538 46.1758 492.038 46.1758C490.397 46.1758 489.105 45.625 488.162 44.5234C487.225 43.416 486.756 41.8984 486.756 39.9707V39.1885C486.756 37.958 486.973 36.874 487.406 35.9365C487.84 34.999 488.458 34.2812 489.261 33.7832C490.069 33.2793 491.007 33.0273 492.073 33.0273C493.55 33.0273 494.739 33.4229 495.642 34.2139C496.544 35.0049 497.065 36.1152 497.206 37.5449H494.569C494.505 36.7188 494.273 36.1211 493.875 35.752C493.482 35.377 492.882 35.1895 492.073 35.1895C491.194 35.1895 490.535 35.5059 490.096 36.1387C489.662 36.7656 489.439 37.7412 489.428 39.0654V40.0322C489.428 41.415 489.636 42.4258 490.052 43.0645C490.474 43.7031 491.136 44.0225 492.038 44.0225C492.853 44.0225 493.459 43.8379 493.857 43.4688C494.262 43.0938 494.493 42.5166 494.552 41.7373H497.188ZM509.432 39.8916C509.432 41.1514 509.209 42.2559 508.764 43.2051C508.318 44.1543 507.68 44.8867 506.848 45.4023C506.021 45.918 505.072 46.1758 504 46.1758C502.939 46.1758 501.993 45.9209 501.161 45.4111C500.329 44.9014 499.685 44.1748 499.228 43.2314C498.771 42.2822 498.539 41.1924 498.533 39.9619V39.3291C498.533 38.0693 498.759 36.9619 499.21 36.0068C499.667 35.0459 500.309 34.3105 501.135 33.8008C501.967 33.2852 502.916 33.0273 503.982 33.0273C505.049 33.0273 505.995 33.2852 506.821 33.8008C507.653 34.3105 508.295 35.0459 508.746 36.0068C509.203 36.9619 509.432 38.0664 509.432 39.3203V39.8916ZM506.76 39.3115C506.76 37.9697 506.52 36.9502 506.039 36.2529C505.559 35.5557 504.873 35.207 503.982 35.207C503.098 35.207 502.415 35.5527 501.935 36.2441C501.454 36.9297 501.211 37.9375 501.205 39.2676V39.8916C501.205 41.1982 501.445 42.2119 501.926 42.9326C502.406 43.6533 503.098 44.0137 504 44.0137C504.885 44.0137 505.564 43.668 506.039 42.9766C506.514 42.2793 506.754 41.2656 506.76 39.9355V39.3115ZM521.754 46H519.117L513.984 37.5801V46H511.348V33.2031H513.984L519.126 41.6406V33.2031H521.754V46ZM533.426 35.3389H529.506V46H526.869V35.3389H523.002V33.2031H533.426V35.3389ZM539.675 41.3154H537.574V46H534.938V33.2031H539.692C541.204 33.2031 542.37 33.54 543.19 34.2139C544.011 34.8877 544.421 35.8398 544.421 37.0703C544.421 37.9434 544.23 38.6729 543.85 39.2588C543.475 39.8389 542.903 40.3018 542.136 40.6475L544.904 45.877V46H542.074L539.675 41.3154ZM537.574 39.1797H539.701C540.363 39.1797 540.876 39.0127 541.239 38.6787C541.603 38.3389 541.784 37.873 541.784 37.2812C541.784 36.6777 541.611 36.2031 541.266 35.8574C540.926 35.5117 540.401 35.3389 539.692 35.3389H537.574V39.1797ZM556.945 39.8916C556.945 41.1514 556.723 42.2559 556.277 43.2051C555.832 44.1543 555.193 44.8867 554.361 45.4023C553.535 45.918 552.586 46.1758 551.514 46.1758C550.453 46.1758 549.507 45.9209 548.675 45.4111C547.843 44.9014 547.198 44.1748 546.741 43.2314C546.284 42.2822 546.053 41.1924 546.047 39.9619V39.3291C546.047 38.0693 546.272 36.9619 546.724 36.0068C547.181 35.0459 547.822 34.3105 548.648 33.8008C549.48 33.2852 550.43 33.0273 551.496 33.0273C552.562 33.0273 553.509 33.2852 554.335 33.8008C555.167 34.3105 555.809 35.0459 556.26 36.0068C556.717 36.9619 556.945 38.0664 556.945 39.3203V39.8916ZM554.273 39.3115C554.273 37.9697 554.033 36.9502 553.553 36.2529C553.072 35.5557 552.387 35.207 551.496 35.207C550.611 35.207 549.929 35.5527 549.448 36.2441C548.968 36.9297 548.725 37.9375 548.719 39.2676V39.8916C548.719 41.1982 548.959 42.2119 549.439 42.9326C549.92 43.6533 550.611 44.0137 551.514 44.0137C552.398 44.0137 553.078 43.668 553.553 42.9766C554.027 42.2793 554.268 41.2656 554.273 39.9355V39.3115ZM561.498 43.8818H567.097V46H558.861V33.2031H561.498V43.8818ZM571.254 43.8818H576.853V46H568.617V33.2031H571.254V43.8818ZM586.072 40.4541H581.01V43.8818H586.951V46H578.373V33.2031H586.934V35.3389H581.01V38.3887H586.072V40.4541ZM593.235 41.3154H591.135V46H588.498V33.2031H593.253C594.765 33.2031 595.931 33.54 596.751 34.2139C597.571 34.8877 597.981 35.8398 597.981 37.0703C597.981 37.9434 597.791 38.6729 597.41 39.2588C597.035 39.8389 596.464 40.3018 595.696 40.6475L598.465 45.877V46H595.635L593.235 41.3154ZM591.135 39.1797H593.262C593.924 39.1797 594.437 39.0127 594.8 38.6787C595.163 38.3389 595.345 37.873 595.345 37.2812C595.345 36.6777 595.172 36.2031 594.826 35.8574C594.486 35.5117 593.962 35.3389 593.253 35.3389H591.135V39.1797ZM606.63 42.6426C606.63 42.1445 606.454 41.7637 606.103 41.5C605.751 41.2305 605.118 40.9492 604.204 40.6562C603.29 40.3574 602.566 40.0645 602.033 39.7773C600.58 38.9922 599.854 37.9346 599.854 36.6045C599.854 35.9131 600.047 35.2979 600.434 34.7588C600.826 34.2139 601.386 33.7891 602.112 33.4844C602.845 33.1797 603.665 33.0273 604.573 33.0273C605.487 33.0273 606.302 33.1943 607.017 33.5283C607.731 33.8564 608.285 34.3223 608.678 34.9258C609.076 35.5293 609.275 36.2148 609.275 36.9824H606.639C606.639 36.3965 606.454 35.9424 606.085 35.6201C605.716 35.292 605.197 35.1279 604.529 35.1279C603.885 35.1279 603.384 35.2656 603.026 35.541C602.669 35.8105 602.49 36.168 602.49 36.6133C602.49 37.0293 602.698 37.3779 603.114 37.6592C603.536 37.9404 604.154 38.2041 604.969 38.4502C606.469 38.9014 607.562 39.4609 608.247 40.1289C608.933 40.7969 609.275 41.6289 609.275 42.625C609.275 43.7324 608.856 44.6025 608.019 45.2354C607.181 45.8623 606.053 46.1758 604.635 46.1758C603.65 46.1758 602.754 45.9971 601.945 45.6396C601.137 45.2764 600.519 44.7812 600.091 44.1543C599.669 43.5273 599.458 42.8008 599.458 41.9746H602.104C602.104 43.3867 602.947 44.0928 604.635 44.0928C605.262 44.0928 605.751 43.9668 606.103 43.7148C606.454 43.457 606.63 43.0996 606.63 42.6426Z" fill="white"/>
</g>
</g>
</svg>
